<?xml version="1.0" encoding="UTF-8" ?>
<svg version="1.1" width="128" height="128" xmlns="http://www.w3.org/2000/svg" shape-rendering="crispEdges">
<rect x="0" y="0" width="21" height="1" fill="#FFFFFF" />
<rect x="123" y="0" width="5" height="21" fill="#FFFFFF" />
<rect x="0" y="1" width="1" height="18" fill="#696A6A" />
<rect x="1" y="1" width="21" height="1" fill="#FFFFFF" />
<rect x="122" y="1" width="1" height="26" fill="#FFFFFF" />
<rect x="1" y="2" width="1" height="18" fill="#696A6A" />
<rect x="2" y="2" width="21" height="1" fill="#FFFFFF" />
<rect x="121" y="2" width="1" height="26" fill="#FFFFFF" />
<rect x="2" y="3" width="1" height="18" fill="#696A6A" />
<rect x="3" y="3" width="21" height="1" fill="#FFFFFF" />
<rect x="120" y="3" width="1" height="26" fill="#FFFFFF" />
<rect x="3" y="4" width="1" height="18" fill="#696A6A" />
<rect x="4" y="4" width="21" height="1" fill="#FFFFFF" />
<rect x="119" y="4" width="1" height="26" fill="#FFFFFF" />
<rect x="4" y="5" width="1" height="18" fill="#696A6A" />
<rect x="5" y="5" width="21" height="1" fill="#FFFFFF" />
<rect x="118" y="5" width="1" height="26" fill="#FFFFFF" />
<rect x="5" y="6" width="1" height="18" fill="#696A6A" />
<rect x="6" y="6" width="21" height="1" fill="#FFFFFF" />
<rect x="117" y="6" width="1" height="26" fill="#FFFFFF" />
<rect x="6" y="7" width="1" height="18" fill="#696A6A" />
<rect x="7" y="7" width="21" height="1" fill="#FFFFFF" />
<rect x="116" y="7" width="1" height="26" fill="#FFFFFF" />
<rect x="7" y="8" width="1" height="18" fill="#696A6A" />
<rect x="8" y="8" width="21" height="1" fill="#FFFFFF" />
<rect x="115" y="8" width="1" height="26" fill="#FFFFFF" />
<rect x="8" y="9" width="1" height="18" fill="#696A6A" />
<rect x="9" y="9" width="21" height="1" fill="#FFFFFF" />
<rect x="114" y="9" width="1" height="26" fill="#FFFFFF" />
<rect x="9" y="10" width="1" height="18" fill="#696A6A" />
<rect x="10" y="10" width="21" height="1" fill="#FFFFFF" />
<rect x="113" y="10" width="1" height="26" fill="#FFFFFF" />
<rect x="10" y="11" width="1" height="18" fill="#696A6A" />
<rect x="11" y="11" width="21" height="1" fill="#FFFFFF" />
<rect x="112" y="11" width="1" height="26" fill="#FFFFFF" />
<rect x="11" y="12" width="1" height="18" fill="#696A6A" />
<rect x="12" y="12" width="21" height="1" fill="#FFFFFF" />
<rect x="111" y="12" width="1" height="26" fill="#FFFFFF" />
<rect x="12" y="13" width="1" height="18" fill="#696A6A" />
<rect x="13" y="13" width="21" height="1" fill="#FFFFFF" />
<rect x="110" y="13" width="1" height="26" fill="#FFFFFF" />
<rect x="13" y="14" width="1" height="18" fill="#696A6A" />
<rect x="14" y="14" width="21" height="1" fill="#FFFFFF" />
<rect x="109" y="14" width="1" height="26" fill="#FFFFFF" />
<rect x="14" y="15" width="1" height="18" fill="#696A6A" />
<rect x="15" y="15" width="21" height="1" fill="#FFFFFF" />
<rect x="108" y="15" width="1" height="26" fill="#FFFFFF" />
<rect x="15" y="16" width="1" height="18" fill="#696A6A" />
<rect x="16" y="16" width="21" height="1" fill="#FFFFFF" />
<rect x="107" y="16" width="1" height="26" fill="#FFFFFF" />
<rect x="16" y="17" width="1" height="18" fill="#696A6A" />
<rect x="17" y="17" width="21" height="1" fill="#FFFFFF" />
<rect x="106" y="17" width="1" height="26" fill="#FFFFFF" />
<rect x="17" y="18" width="1" height="18" fill="#696A6A" />
<rect x="18" y="18" width="20" height="1" fill="#FFFFFF" />
<rect x="105" y="18" width="1" height="26" fill="#FFFFFF" />
<rect x="0" y="19" width="1" height="1" fill="#FFFFFF" />
<rect x="18" y="19" width="1" height="18" fill="#696A6A" />
<rect x="19" y="19" width="20" height="1" fill="#FFFFFF" />
<rect x="104" y="19" width="1" height="26" fill="#FFFFFF" />
<rect x="1" y="20" width="1" height="1" fill="#FFFFFF" />
<rect x="19" y="20" width="1" height="18" fill="#696A6A" />
<rect x="20" y="20" width="20" height="1" fill="#FFFFFF" />
<rect x="103" y="20" width="1" height="26" fill="#FFFFFF" />
<rect x="2" y="21" width="1" height="1" fill="#FFFFFF" />
<rect x="20" y="21" width="1" height="18" fill="#696A6A" />
<rect x="21" y="21" width="20" height="1" fill="#FFFFFF" />
<rect x="102" y="21" width="1" height="26" fill="#FFFFFF" />
<rect x="123" y="21" width="4" height="1" fill="#FFFFFF" />
<rect x="3" y="22" width="1" height="1" fill="#FFFFFF" />
<rect x="21" y="22" width="1" height="18" fill="#696A6A" />
<rect x="22" y="22" width="20" height="1" fill="#FFFFFF" />
<rect x="101" y="22" width="1" height="26" fill="#FFFFFF" />
<rect x="123" y="22" width="3" height="1" fill="#FFFFFF" />
<rect x="4" y="23" width="1" height="1" fill="#FFFFFF" />
<rect x="22" y="23" width="1" height="18" fill="#696A6A" />
<rect x="23" y="23" width="20" height="1" fill="#FFFFFF" />
<rect x="100" y="23" width="1" height="26" fill="#FFFFFF" />
<rect x="123" y="23" width="2" height="1" fill="#FFFFFF" />
<rect x="5" y="24" width="1" height="1" fill="#FFFFFF" />
<rect x="23" y="24" width="1" height="18" fill="#696A6A" />
<rect x="24" y="24" width="20" height="1" fill="#FFFFFF" />
<rect x="99" y="24" width="1" height="26" fill="#FFFFFF" />
<rect x="123" y="24" width="1" height="1" fill="#FFFFFF" />
<rect x="6" y="25" width="1" height="1" fill="#FFFFFF" />
<rect x="24" y="25" width="1" height="18" fill="#696A6A" />
<rect x="25" y="25" width="20" height="1" fill="#FFFFFF" />
<rect x="98" y="25" width="1" height="26" fill="#FFFFFF" />
<rect x="7" y="26" width="1" height="1" fill="#FFFFFF" />
<rect x="25" y="26" width="1" height="18" fill="#696A6A" />
<rect x="26" y="26" width="20" height="1" fill="#FFFFFF" />
<rect x="97" y="26" width="1" height="26" fill="#FFFFFF" />
<rect x="8" y="27" width="1" height="1" fill="#FFFFFF" />
<rect x="26" y="27" width="1" height="18" fill="#696A6A" />
<rect x="27" y="27" width="20" height="1" fill="#FFFFFF" />
<rect x="96" y="27" width="1" height="26" fill="#FFFFFF" />
<rect x="9" y="28" width="1" height="1" fill="#FFFFFF" />
<rect x="27" y="28" width="1" height="18" fill="#696A6A" />
<rect x="28" y="28" width="20" height="1" fill="#FFFFFF" />
<rect x="95" y="28" width="1" height="26" fill="#FFFFFF" />
<rect x="10" y="29" width="1" height="1" fill="#FFFFFF" />
<rect x="28" y="29" width="1" height="18" fill="#696A6A" />
<rect x="29" y="29" width="20" height="1" fill="#FFFFFF" />
<rect x="94" y="29" width="1" height="26" fill="#FFFFFF" />
<rect x="11" y="30" width="1" height="1" fill="#FFFFFF" />
<rect x="29" y="30" width="1" height="18" fill="#696A6A" />
<rect x="30" y="30" width="20" height="1" fill="#FFFFFF" />
<rect x="93" y="30" width="1" height="26" fill="#FFFFFF" />
<rect x="12" y="31" width="1" height="1" fill="#FFFFFF" />
<rect x="30" y="31" width="1" height="18" fill="#696A6A" />
<rect x="31" y="31" width="20" height="1" fill="#FFFFFF" />
<rect x="92" y="31" width="1" height="26" fill="#FFFFFF" />
<rect x="13" y="32" width="1" height="1" fill="#FFFFFF" />
<rect x="31" y="32" width="1" height="18" fill="#696A6A" />
<rect x="32" y="32" width="20" height="1" fill="#FFFFFF" />
<rect x="91" y="32" width="1" height="26" fill="#FFFFFF" />
<rect x="14" y="33" width="1" height="1" fill="#FFFFFF" />
<rect x="32" y="33" width="1" height="18" fill="#696A6A" />
<rect x="33" y="33" width="20" height="1" fill="#FFFFFF" />
<rect x="90" y="33" width="1" height="26" fill="#FFFFFF" />
<rect x="15" y="34" width="1" height="1" fill="#FFFFFF" />
<rect x="33" y="34" width="1" height="18" fill="#696A6A" />
<rect x="34" y="34" width="20" height="1" fill="#FFFFFF" />
<rect x="89" y="34" width="1" height="26" fill="#FFFFFF" />
<rect x="16" y="35" width="1" height="1" fill="#FFFFFF" />
<rect x="34" y="35" width="1" height="18" fill="#696A6A" />
<rect x="35" y="35" width="20" height="1" fill="#FFFFFF" />
<rect x="88" y="35" width="1" height="26" fill="#FFFFFF" />
<rect x="17" y="36" width="1" height="1" fill="#FFFFFF" />
<rect x="35" y="36" width="1" height="18" fill="#696A6A" />
<rect x="36" y="36" width="20" height="1" fill="#FFFFFF" />
<rect x="87" y="36" width="1" height="26" fill="#FFFFFF" />
<rect x="18" y="37" width="1" height="1" fill="#FFFFFF" />
<rect x="36" y="37" width="1" height="18" fill="#696A6A" />
<rect x="37" y="37" width="20" height="1" fill="#FFFFFF" />
<rect x="86" y="37" width="1" height="26" fill="#FFFFFF" />
<rect x="19" y="38" width="1" height="1" fill="#FFFFFF" />
<rect x="37" y="38" width="1" height="18" fill="#696A6A" />
<rect x="38" y="38" width="20" height="1" fill="#FFFFFF" />
<rect x="85" y="38" width="1" height="26" fill="#FFFFFF" />
<rect x="20" y="39" width="1" height="1" fill="#FFFFFF" />
<rect x="38" y="39" width="1" height="18" fill="#696A6A" />
<rect x="39" y="39" width="20" height="1" fill="#FFFFFF" />
<rect x="84" y="39" width="1" height="46" fill="#FFFFFF" />
<rect x="21" y="40" width="1" height="1" fill="#FFFFFF" />
<rect x="39" y="40" width="1" height="18" fill="#696A6A" />
<rect x="40" y="40" width="20" height="1" fill="#FFFFFF" />
<rect x="83" y="40" width="1" height="44" fill="#FFFFFF" />
<rect x="22" y="41" width="1" height="1" fill="#FFFFFF" />
<rect x="40" y="41" width="1" height="18" fill="#696A6A" />
<rect x="41" y="41" width="20" height="1" fill="#FFFFFF" />
<rect x="82" y="41" width="1" height="42" fill="#FFFFFF" />
<rect x="23" y="42" width="1" height="1" fill="#FFFFFF" />
<rect x="41" y="42" width="1" height="18" fill="#696A6A" />
<rect x="42" y="42" width="20" height="1" fill="#FFFFFF" />
<rect x="81" y="42" width="1" height="40" fill="#FFFFFF" />
<rect x="24" y="43" width="1" height="1" fill="#FFFFFF" />
<rect x="42" y="43" width="1" height="18" fill="#696A6A" />
<rect x="43" y="43" width="20" height="1" fill="#FFFFFF" />
<rect x="80" y="43" width="1" height="38" fill="#FFFFFF" />
<rect x="25" y="44" width="1" height="1" fill="#FFFFFF" />
<rect x="43" y="44" width="1" height="18" fill="#696A6A" />
<rect x="44" y="44" width="20" height="1" fill="#FFFFFF" />
<rect x="79" y="44" width="1" height="36" fill="#FFFFFF" />
<rect x="26" y="45" width="1" height="1" fill="#FFFFFF" />
<rect x="44" y="45" width="1" height="18" fill="#696A6A" />
<rect x="45" y="45" width="20" height="1" fill="#FFFFFF" />
<rect x="78" y="45" width="1" height="34" fill="#FFFFFF" />
<rect x="27" y="46" width="1" height="1" fill="#FFFFFF" />
<rect x="45" y="46" width="1" height="18" fill="#696A6A" />
<rect x="46" y="46" width="20" height="1" fill="#FFFFFF" />
<rect x="77" y="46" width="1" height="32" fill="#FFFFFF" />
<rect x="28" y="47" width="1" height="1" fill="#FFFFFF" />
<rect x="46" y="47" width="1" height="18" fill="#696A6A" />
<rect x="47" y="47" width="20" height="1" fill="#FFFFFF" />
<rect x="76" y="47" width="1" height="30" fill="#FFFFFF" />
<rect x="29" y="48" width="1" height="1" fill="#FFFFFF" />
<rect x="47" y="48" width="1" height="18" fill="#696A6A" />
<rect x="48" y="48" width="20" height="1" fill="#FFFFFF" />
<rect x="75" y="48" width="1" height="28" fill="#FFFFFF" />
<rect x="30" y="49" width="1" height="1" fill="#FFFFFF" />
<rect x="48" y="49" width="1" height="18" fill="#696A6A" />
<rect x="49" y="49" width="20" height="1" fill="#FFFFFF" />
<rect x="74" y="49" width="1" height="27" fill="#FFFFFF" />
<rect x="31" y="50" width="1" height="1" fill="#FFFFFF" />
<rect x="49" y="50" width="1" height="18" fill="#696A6A" />
<rect x="50" y="50" width="20" height="1" fill="#FFFFFF" />
<rect x="73" y="50" width="1" height="24" fill="#FFFFFF" />
<rect x="32" y="51" width="1" height="1" fill="#FFFFFF" />
<rect x="50" y="51" width="1" height="18" fill="#696A6A" />
<rect x="51" y="51" width="20" height="1" fill="#FFFFFF" />
<rect x="72" y="51" width="1" height="22" fill="#FFFFFF" />
<rect x="33" y="52" width="1" height="1" fill="#FFFFFF" />
<rect x="51" y="52" width="1" height="18" fill="#696A6A" />
<rect x="52" y="52" width="20" height="1" fill="#FFFFFF" />
<rect x="34" y="53" width="1" height="1" fill="#FFFFFF" />
<rect x="52" y="53" width="1" height="18" fill="#696A6A" />
<rect x="53" y="53" width="19" height="1" fill="#FFFFFF" />
<rect x="35" y="54" width="1" height="1" fill="#FFFFFF" />
<rect x="53" y="54" width="1" height="16" fill="#696A6A" />
<rect x="54" y="54" width="18" height="1" fill="#FFFFFF" />
<rect x="36" y="55" width="1" height="1" fill="#FFFFFF" />
<rect x="54" y="55" width="1" height="14" fill="#696A6A" />
<rect x="55" y="55" width="17" height="1" fill="#FFFFFF" />
<rect x="37" y="56" width="1" height="1" fill="#FFFFFF" />
<rect x="55" y="56" width="1" height="12" fill="#696A6A" />
<rect x="56" y="56" width="16" height="1" fill="#FFFFFF" />
<rect x="38" y="57" width="1" height="1" fill="#FFFFFF" />
<rect x="56" y="57" width="1" height="10" fill="#696A6A" />
<rect x="57" y="57" width="15" height="1" fill="#FFFFFF" />
<rect x="39" y="58" width="1" height="1" fill="#FFFFFF" />
<rect x="57" y="58" width="1" height="8" fill="#696A6A" />
<rect x="58" y="58" width="14" height="1" fill="#FFFFFF" />
<rect x="40" y="59" width="1" height="1" fill="#FFFFFF" />
<rect x="58" y="59" width="1" height="6" fill="#696A6A" />
<rect x="59" y="59" width="13" height="1" fill="#FFFFFF" />
<rect x="41" y="60" width="1" height="1" fill="#FFFFFF" />
<rect x="59" y="60" width="1" height="4" fill="#696A6A" />
<rect x="60" y="60" width="12" height="1" fill="#FFFFFF" />
<rect x="42" y="61" width="1" height="1" fill="#FFFFFF" />
<rect x="60" y="61" width="1" height="2" fill="#696A6A" />
<rect x="61" y="61" width="11" height="2" fill="#FFFFFF" />
<rect x="43" y="62" width="1" height="1" fill="#FFFFFF" />
<rect x="44" y="63" width="1" height="1" fill="#FFFFFF" />
<rect x="60" y="63" width="1" height="1" fill="#FFFFFF" />
<rect x="61" y="63" width="2" height="17" fill="#696A6A" />
<rect x="63" y="63" width="9" height="1" fill="#FFFFFF" />
<rect x="45" y="64" width="1" height="1" fill="#FFFFFF" />
<rect x="59" y="64" width="1" height="1" fill="#FFFFFF" />
<rect x="60" y="64" width="1" height="15" fill="#696A6A" />
<rect x="63" y="64" width="1" height="18" fill="#696A6A" />
<rect x="64" y="64" width="8" height="1" fill="#FFFFFF" />
<rect x="46" y="65" width="1" height="1" fill="#FFFFFF" />
<rect x="58" y="65" width="1" height="1" fill="#FFFFFF" />
<rect x="59" y="65" width="1" height="13" fill="#696A6A" />
<rect x="64" y="65" width="1" height="18" fill="#696A6A" />
<rect x="65" y="65" width="7" height="1" fill="#FFFFFF" />
<rect x="47" y="66" width="1" height="1" fill="#FFFFFF" />
<rect x="57" y="66" width="1" height="1" fill="#FFFFFF" />
<rect x="58" y="66" width="1" height="11" fill="#696A6A" />
<rect x="65" y="66" width="1" height="18" fill="#696A6A" />
<rect x="66" y="66" width="6" height="1" fill="#FFFFFF" />
<rect x="85" y="66" width="1" height="20" fill="#FFFFFF" />
<rect x="48" y="67" width="1" height="1" fill="#FFFFFF" />
<rect x="56" y="67" width="1" height="1" fill="#FFFFFF" />
<rect x="57" y="67" width="1" height="9" fill="#696A6A" />
<rect x="66" y="67" width="1" height="16" fill="#696A6A" />
<rect x="67" y="67" width="5" height="1" fill="#FFFFFF" />
<rect x="86" y="67" width="1" height="20" fill="#FFFFFF" />
<rect x="49" y="68" width="1" height="1" fill="#FFFFFF" />
<rect x="55" y="68" width="1" height="1" fill="#FFFFFF" />
<rect x="56" y="68" width="1" height="7" fill="#696A6A" />
<rect x="67" y="68" width="1" height="14" fill="#696A6A" />
<rect x="68" y="68" width="4" height="1" fill="#FFFFFF" />
<rect x="87" y="68" width="1" height="20" fill="#FFFFFF" />
<rect x="50" y="69" width="1" height="1" fill="#FFFFFF" />
<rect x="54" y="69" width="1" height="1" fill="#FFFFFF" />
<rect x="55" y="69" width="1" height="5" fill="#696A6A" />
<rect x="68" y="69" width="1" height="12" fill="#696A6A" />
<rect x="69" y="69" width="3" height="1" fill="#FFFFFF" />
<rect x="88" y="69" width="1" height="20" fill="#FFFFFF" />
<rect x="51" y="70" width="1" height="1" fill="#FFFFFF" />
<rect x="53" y="70" width="1" height="1" fill="#FFFFFF" />
<rect x="54" y="70" width="1" height="3" fill="#696A6A" />
<rect x="69" y="70" width="1" height="10" fill="#696A6A" />
<rect x="70" y="70" width="2" height="1" fill="#FFFFFF" />
<rect x="89" y="70" width="1" height="20" fill="#FFFFFF" />
<rect x="52" y="71" width="1" height="27" fill="#FFFFFF" />
<rect x="53" y="71" width="1" height="1" fill="#696A6A" />
<rect x="70" y="71" width="1" height="8" fill="#696A6A" />
<rect x="71" y="71" width="1" height="1" fill="#FFFFFF" />
<rect x="90" y="71" width="1" height="20" fill="#FFFFFF" />
<rect x="51" y="72" width="1" height="27" fill="#FFFFFF" />
<rect x="53" y="72" width="1" height="25" fill="#FFFFFF" />
<rect x="71" y="72" width="1" height="6" fill="#696A6A" />
<rect x="91" y="72" width="1" height="20" fill="#FFFFFF" />
<rect x="50" y="73" width="1" height="27" fill="#FFFFFF" />
<rect x="54" y="73" width="1" height="23" fill="#FFFFFF" />
<rect x="72" y="73" width="1" height="4" fill="#696A6A" />
<rect x="92" y="73" width="1" height="20" fill="#FFFFFF" />
<rect x="49" y="74" width="1" height="27" fill="#FFFFFF" />
<rect x="55" y="74" width="1" height="21" fill="#FFFFFF" />
<rect x="73" y="74" width="1" height="2" fill="#696A6A" />
<rect x="93" y="74" width="1" height="20" fill="#FFFFFF" />
<rect x="48" y="75" width="1" height="27" fill="#FFFFFF" />
<rect x="56" y="75" width="1" height="19" fill="#FFFFFF" />
<rect x="94" y="75" width="1" height="20" fill="#FFFFFF" />
<rect x="47" y="76" width="1" height="27" fill="#FFFFFF" />
<rect x="57" y="76" width="1" height="17" fill="#FFFFFF" />
<rect x="73" y="76" width="1" height="1" fill="#FFFFFF" />
<rect x="74" y="76" width="2" height="17" fill="#696A6A" />
<rect x="95" y="76" width="1" height="20" fill="#FFFFFF" />
<rect x="46" y="77" width="1" height="27" fill="#FFFFFF" />
<rect x="58" y="77" width="1" height="15" fill="#FFFFFF" />
<rect x="72" y="77" width="1" height="1" fill="#FFFFFF" />
<rect x="73" y="77" width="1" height="15" fill="#696A6A" />
<rect x="76" y="77" width="1" height="17" fill="#696A6A" />
<rect x="96" y="77" width="1" height="20" fill="#FFFFFF" />
<rect x="45" y="78" width="1" height="27" fill="#FFFFFF" />
<rect x="59" y="78" width="1" height="13" fill="#FFFFFF" />
<rect x="71" y="78" width="1" height="1" fill="#FFFFFF" />
<rect x="72" y="78" width="1" height="13" fill="#696A6A" />
<rect x="77" y="78" width="1" height="17" fill="#696A6A" />
<rect x="44" y="79" width="1" height="27" fill="#FFFFFF" />
<rect x="60" y="79" width="1" height="11" fill="#FFFFFF" />
<rect x="70" y="79" width="1" height="1" fill="#FFFFFF" />
<rect x="71" y="79" width="1" height="11" fill="#696A6A" />
<rect x="78" y="79" width="1" height="17" fill="#696A6A" />
<rect x="97" y="79" width="1" height="19" fill="#FFFFFF" />
<rect x="43" y="80" width="1" height="27" fill="#FFFFFF" />
<rect x="61" y="80" width="1" height="9" fill="#FFFFFF" />
<rect x="62" y="80" width="1" height="1" fill="#696A6A" />
<rect x="69" y="80" width="1" height="1" fill="#FFFFFF" />
<rect x="70" y="80" width="1" height="9" fill="#696A6A" />
<rect x="79" y="80" width="1" height="17" fill="#696A6A" />
<rect x="98" y="80" width="1" height="19" fill="#FFFFFF" />
<rect x="42" y="81" width="1" height="27" fill="#FFFFFF" />
<rect x="62" y="81" width="1" height="7" fill="#FFFFFF" />
<rect x="68" y="81" width="1" height="1" fill="#FFFFFF" />
<rect x="69" y="81" width="1" height="7" fill="#696A6A" />
<rect x="80" y="81" width="1" height="17" fill="#696A6A" />
<rect x="99" y="81" width="1" height="19" fill="#FFFFFF" />
<rect x="41" y="82" width="1" height="27" fill="#FFFFFF" />
<rect x="63" y="82" width="1" height="5" fill="#FFFFFF" />
<rect x="67" y="82" width="1" height="1" fill="#FFFFFF" />
<rect x="68" y="82" width="1" height="5" fill="#696A6A" />
<rect x="81" y="82" width="1" height="17" fill="#696A6A" />
<rect x="100" y="82" width="1" height="19" fill="#FFFFFF" />
<rect x="40" y="83" width="1" height="27" fill="#FFFFFF" />
<rect x="64" y="83" width="1" height="3" fill="#FFFFFF" />
<rect x="66" y="83" width="1" height="1" fill="#FFFFFF" />
<rect x="67" y="83" width="1" height="3" fill="#696A6A" />
<rect x="82" y="83" width="1" height="17" fill="#696A6A" />
<rect x="101" y="83" width="1" height="19" fill="#FFFFFF" />
<rect x="39" y="84" width="1" height="27" fill="#FFFFFF" />
<rect x="65" y="84" width="1" height="1" fill="#FFFFFF" />
<rect x="66" y="84" width="1" height="1" fill="#696A6A" />
<rect x="83" y="84" width="1" height="17" fill="#696A6A" />
<rect x="102" y="84" width="1" height="19" fill="#FFFFFF" />
<rect x="38" y="85" width="1" height="27" fill="#FFFFFF" />
<rect x="66" y="85" width="1" height="1" fill="#FFFFFF" />
<rect x="84" y="85" width="1" height="17" fill="#696A6A" />
<rect x="103" y="85" width="1" height="19" fill="#FFFFFF" />
<rect x="37" y="86" width="1" height="27" fill="#FFFFFF" />
<rect x="67" y="86" width="1" height="1" fill="#FFFFFF" />
<rect x="85" y="86" width="1" height="17" fill="#696A6A" />
<rect x="104" y="86" width="1" height="19" fill="#FFFFFF" />
<rect x="36" y="87" width="1" height="27" fill="#FFFFFF" />
<rect x="68" y="87" width="1" height="1" fill="#FFFFFF" />
<rect x="86" y="87" width="1" height="17" fill="#696A6A" />
<rect x="105" y="87" width="1" height="19" fill="#FFFFFF" />
<rect x="35" y="88" width="1" height="27" fill="#FFFFFF" />
<rect x="69" y="88" width="1" height="1" fill="#FFFFFF" />
<rect x="87" y="88" width="1" height="17" fill="#696A6A" />
<rect x="106" y="88" width="1" height="19" fill="#FFFFFF" />
<rect x="34" y="89" width="1" height="27" fill="#FFFFFF" />
<rect x="70" y="89" width="1" height="1" fill="#FFFFFF" />
<rect x="88" y="89" width="1" height="17" fill="#696A6A" />
<rect x="107" y="89" width="1" height="19" fill="#FFFFFF" />
<rect x="33" y="90" width="1" height="28" fill="#FFFFFF" />
<rect x="71" y="90" width="1" height="1" fill="#FFFFFF" />
<rect x="89" y="90" width="1" height="17" fill="#696A6A" />
<rect x="108" y="90" width="1" height="19" fill="#FFFFFF" />
<rect x="32" y="91" width="1" height="28" fill="#FFFFFF" />
<rect x="72" y="91" width="1" height="1" fill="#FFFFFF" />
<rect x="90" y="91" width="1" height="17" fill="#696A6A" />
<rect x="109" y="91" width="1" height="19" fill="#FFFFFF" />
<rect x="31" y="92" width="1" height="28" fill="#FFFFFF" />
<rect x="73" y="92" width="1" height="1" fill="#FFFFFF" />
<rect x="91" y="92" width="1" height="17" fill="#696A6A" />
<rect x="110" y="92" width="1" height="19" fill="#FFFFFF" />
<rect x="30" y="93" width="1" height="28" fill="#FFFFFF" />
<rect x="74" y="93" width="1" height="1" fill="#FFFFFF" />
<rect x="75" y="93" width="1" height="1" fill="#696A6A" />
<rect x="92" y="93" width="1" height="17" fill="#696A6A" />
<rect x="111" y="93" width="1" height="19" fill="#FFFFFF" />
<rect x="29" y="94" width="1" height="28" fill="#FFFFFF" />
<rect x="75" y="94" width="2" height="1" fill="#FFFFFF" />
<rect x="93" y="94" width="1" height="17" fill="#696A6A" />
<rect x="112" y="94" width="1" height="19" fill="#FFFFFF" />
<rect x="28" y="95" width="1" height="28" fill="#FFFFFF" />
<rect x="77" y="95" width="1" height="1" fill="#FFFFFF" />
<rect x="94" y="95" width="1" height="17" fill="#696A6A" />
<rect x="113" y="95" width="1" height="19" fill="#FFFFFF" />
<rect x="27" y="96" width="1" height="28" fill="#FFFFFF" />
<rect x="78" y="96" width="1" height="1" fill="#FFFFFF" />
<rect x="95" y="96" width="1" height="17" fill="#696A6A" />
<rect x="114" y="96" width="1" height="19" fill="#FFFFFF" />
<rect x="26" y="97" width="1" height="28" fill="#FFFFFF" />
<rect x="79" y="97" width="1" height="1" fill="#FFFFFF" />
<rect x="96" y="97" width="1" height="17" fill="#696A6A" />
<rect x="115" y="97" width="1" height="19" fill="#FFFFFF" />
<rect x="25" y="98" width="1" height="28" fill="#FFFFFF" />
<rect x="80" y="98" width="1" height="1" fill="#FFFFFF" />
<rect x="97" y="98" width="1" height="17" fill="#696A6A" />
<rect x="116" y="98" width="1" height="19" fill="#FFFFFF" />
<rect x="24" y="99" width="1" height="28" fill="#FFFFFF" />
<rect x="81" y="99" width="1" height="1" fill="#FFFFFF" />
<rect x="98" y="99" width="1" height="17" fill="#696A6A" />
<rect x="117" y="99" width="1" height="19" fill="#FFFFFF" />
<rect x="23" y="100" width="1" height="28" fill="#FFFFFF" />
<rect x="82" y="100" width="1" height="1" fill="#FFFFFF" />
<rect x="99" y="100" width="1" height="17" fill="#696A6A" />
<rect x="118" y="100" width="1" height="19" fill="#FFFFFF" />
<rect x="22" y="101" width="1" height="27" fill="#FFFFFF" />
<rect x="83" y="101" width="1" height="1" fill="#FFFFFF" />
<rect x="100" y="101" width="1" height="17" fill="#696A6A" />
<rect x="119" y="101" width="1" height="19" fill="#FFFFFF" />
<rect x="21" y="102" width="1" height="26" fill="#FFFFFF" />
<rect x="84" y="102" width="1" height="1" fill="#FFFFFF" />
<rect x="101" y="102" width="1" height="17" fill="#696A6A" />
<rect x="120" y="102" width="1" height="19" fill="#FFFFFF" />
<rect x="20" y="103" width="1" height="25" fill="#FFFFFF" />
<rect x="85" y="103" width="1" height="1" fill="#FFFFFF" />
<rect x="102" y="103" width="1" height="17" fill="#696A6A" />
<rect x="121" y="103" width="1" height="19" fill="#FFFFFF" />
<rect x="19" y="104" width="1" height="24" fill="#FFFFFF" />
<rect x="86" y="104" width="1" height="1" fill="#FFFFFF" />
<rect x="103" y="104" width="1" height="17" fill="#696A6A" />
<rect x="122" y="104" width="1" height="19" fill="#FFFFFF" />
<rect x="18" y="105" width="1" height="23" fill="#FFFFFF" />
<rect x="87" y="105" width="1" height="1" fill="#FFFFFF" />
<rect x="104" y="105" width="1" height="17" fill="#696A6A" />
<rect x="123" y="105" width="1" height="19" fill="#FFFFFF" />
<rect x="17" y="106" width="1" height="22" fill="#FFFFFF" />
<rect x="88" y="106" width="1" height="1" fill="#FFFFFF" />
<rect x="105" y="106" width="1" height="17" fill="#696A6A" />
<rect x="124" y="106" width="1" height="19" fill="#FFFFFF" />
<rect x="16" y="107" width="1" height="21" fill="#FFFFFF" />
<rect x="89" y="107" width="1" height="1" fill="#FFFFFF" />
<rect x="106" y="107" width="1" height="17" fill="#696A6A" />
<rect x="125" y="107" width="1" height="19" fill="#FFFFFF" />
<rect x="15" y="108" width="1" height="20" fill="#FFFFFF" />
<rect x="90" y="108" width="1" height="1" fill="#FFFFFF" />
<rect x="107" y="108" width="1" height="17" fill="#696A6A" />
<rect x="126" y="108" width="1" height="19" fill="#FFFFFF" />
<rect x="14" y="109" width="1" height="19" fill="#FFFFFF" />
<rect x="91" y="109" width="1" height="1" fill="#FFFFFF" />
<rect x="108" y="109" width="1" height="17" fill="#696A6A" />
<rect x="127" y="109" width="1" height="19" fill="#FFFFFF" />
<rect x="13" y="110" width="1" height="18" fill="#FFFFFF" />
<rect x="92" y="110" width="1" height="1" fill="#FFFFFF" />
<rect x="109" y="110" width="1" height="17" fill="#696A6A" />
<rect x="12" y="111" width="1" height="17" fill="#FFFFFF" />
<rect x="93" y="111" width="1" height="1" fill="#FFFFFF" />
<rect x="110" y="111" width="1" height="17" fill="#696A6A" />
<rect x="11" y="112" width="1" height="16" fill="#FFFFFF" />
<rect x="94" y="112" width="1" height="1" fill="#FFFFFF" />
<rect x="111" y="112" width="1" height="16" fill="#696A6A" />
<rect x="10" y="113" width="1" height="15" fill="#FFFFFF" />
<rect x="95" y="113" width="1" height="1" fill="#FFFFFF" />
<rect x="112" y="113" width="1" height="15" fill="#696A6A" />
<rect x="9" y="114" width="1" height="14" fill="#FFFFFF" />
<rect x="96" y="114" width="1" height="1" fill="#FFFFFF" />
<rect x="113" y="114" width="1" height="14" fill="#696A6A" />
<rect x="8" y="115" width="1" height="13" fill="#FFFFFF" />
<rect x="97" y="115" width="1" height="1" fill="#FFFFFF" />
<rect x="114" y="115" width="1" height="13" fill="#696A6A" />
<rect x="7" y="116" width="1" height="12" fill="#FFFFFF" />
<rect x="98" y="116" width="1" height="1" fill="#FFFFFF" />
<rect x="115" y="116" width="1" height="12" fill="#696A6A" />
<rect x="6" y="117" width="1" height="11" fill="#FFFFFF" />
<rect x="99" y="117" width="1" height="1" fill="#FFFFFF" />
<rect x="116" y="117" width="1" height="11" fill="#696A6A" />
<rect x="5" y="118" width="1" height="10" fill="#FFFFFF" />
<rect x="100" y="118" width="1" height="1" fill="#FFFFFF" />
<rect x="117" y="118" width="1" height="10" fill="#696A6A" />
<rect x="4" y="119" width="1" height="9" fill="#FFFFFF" />
<rect x="101" y="119" width="1" height="1" fill="#FFFFFF" />
<rect x="118" y="119" width="1" height="9" fill="#696A6A" />
<rect x="3" y="120" width="1" height="8" fill="#FFFFFF" />
<rect x="102" y="120" width="1" height="1" fill="#FFFFFF" />
<rect x="119" y="120" width="1" height="8" fill="#696A6A" />
<rect x="2" y="121" width="1" height="7" fill="#FFFFFF" />
<rect x="103" y="121" width="1" height="1" fill="#FFFFFF" />
<rect x="120" y="121" width="1" height="7" fill="#696A6A" />
<rect x="1" y="122" width="1" height="6" fill="#FFFFFF" />
<rect x="104" y="122" width="1" height="1" fill="#FFFFFF" />
<rect x="121" y="122" width="1" height="6" fill="#696A6A" />
<rect x="0" y="123" width="1" height="5" fill="#FFFFFF" />
<rect x="105" y="123" width="1" height="1" fill="#FFFFFF" />
<rect x="122" y="123" width="1" height="5" fill="#696A6A" />
<rect x="106" y="124" width="1" height="1" fill="#FFFFFF" />
<rect x="123" y="124" width="1" height="4" fill="#696A6A" />
<rect x="107" y="125" width="1" height="1" fill="#FFFFFF" />
<rect x="124" y="125" width="1" height="3" fill="#696A6A" />
<rect x="108" y="126" width="1" height="1" fill="#FFFFFF" />
<rect x="125" y="126" width="1" height="2" fill="#696A6A" />
<rect x="109" y="127" width="1" height="1" fill="#FFFFFF" />
<rect x="126" y="127" width="1" height="1" fill="#696A6A" />
</svg>